<svg data-v-423bf9ae="" xmlns="http://www.w3.org/2000/svg" viewBox="0 0 360.8597710322758 60" class="font"><!----><!----><!----><g data-v-423bf9ae="" id="96c9b88a-2fad-424c-9be2-3ab6616d07c5" fill="#FFFFFF" transform="matrix(6.1412484328310715,0,0,6.1412484328310715,-1.0440139549077685,-17.80962056404804)"><path d="M5.25 4.76L2.03 12.67L0.17 12.67L4.32 2.90L6.27 2.90L10.51 12.67L8.56 12.67L7.44 10.01L4.20 10.01L4.82 8.44L6.79 8.44L5.25 4.76ZM13.34 12.67L11.53 12.67L11.53 5.50L12.93 5.50L13.16 6.41Q14.10 5.50 15.16 5.50L15.16 5.50L15.16 6.96Q14.14 6.96 13.34 7.80L13.34 7.80L13.34 12.67ZM20.83 5.50L22.64 5.50L22.64 12.67L21.23 12.67L21.01 11.76Q19.77 12.67 18.38 12.67L18.38 12.67Q16.18 12.67 16.18 10.07L16.18 10.07L16.18 5.50L17.99 5.50L17.99 10.02Q17.99 11.21 19.03 11.21L19.03 11.21Q19.91 11.21 20.83 10.51L20.83 10.51L20.83 5.50ZM26.16 12.67L24.35 12.67L24.35 5.50L25.75 5.50L25.98 6.55Q27.01 5.50 28.33 5.50L28.33 5.50Q30.88 5.50 30.88 8.15L30.88 8.15L30.88 12.67L29.07 12.67L29.07 8.15Q29.07 6.96 27.88 6.96L27.88 6.96Q27.00 6.96 26.16 7.66L26.16 7.66L26.16 12.67ZM37.65 12.67L35.83 12.67L35.83 2.90L40.21 2.90Q43.20 2.90 43.20 5.65L43.20 5.65Q43.20 8.64 39.11 9.27L39.11 9.27L38.85 7.66Q41.31 7.21 41.31 5.71L41.31 5.71Q41.31 4.49 40.09 4.49L40.09 4.49L37.65 4.49L37.65 12.67ZM48.88 5.50L50.69 5.50L50.69 12.67L49.27 12.67L49.05 11.76Q47.82 12.67 46.43 12.67L46.43 12.67Q44.23 12.67 44.23 10.07L44.23 10.07L44.23 5.50L46.04 5.50L46.04 10.02Q46.04 11.21 47.08 11.21L47.08 11.21Q47.96 11.21 48.88 10.51L48.88 10.51L48.88 5.50ZM54.21 12.67L52.40 12.67L52.40 5.50L53.80 5.50L54.02 6.55Q55.06 5.50 56.38 5.50L56.38 5.50Q58.93 5.50 58.93 8.15L58.93 8.15L58.93 12.67L57.11 12.67L57.11 8.15Q57.11 6.96 55.93 6.96L55.93 6.96Q55.05 6.96 54.21 7.66L54.21 7.66L54.21 12.67Z"></path></g><!----><!----></svg>